<?xml version="1.0" encoding="UTF-8" standalone="no"?>
<!-- Created with Inkscape (http://www.inkscape.org/) -->

<svg
   xmlns:dc="http://purl.org/dc/elements/1.1/"
   xmlns:cc="http://creativecommons.org/ns#"
   xmlns:rdf="http://www.w3.org/1999/02/22-rdf-syntax-ns#"
   xmlns:svg="http://www.w3.org/2000/svg"
   xmlns="http://www.w3.org/2000/svg"
   xmlns:sodipodi="http://sodipodi.sourceforge.net/DTD/sodipodi-0.dtd"
   xmlns:inkscape="http://www.inkscape.org/namespaces/inkscape"
   id="svg3093"
   version="1.1"
   inkscape:version="0.48.4 r9939"
   width="249.98372"
   height="283.87402"
   sodipodi:docname="Logo_ponts_paristech.png">
  <metadata
     id="metadata3099">
    <rdf:RDF>
      <cc:Work
         rdf:about="">
        <dc:format>image/svg+xml</dc:format>
        <dc:type
           rdf:resource="http://purl.org/dc/dcmitype/StillImage" />
        <dc:title></dc:title>
      </cc:Work>
    </rdf:RDF>
  </metadata>
  <defs
     id="defs3097" />
  <sodipodi:namedview
     pagecolor="#ffffff"
     bordercolor="#666666"
     borderopacity="1"
     objecttolerance="10"
     gridtolerance="10"
     guidetolerance="10"
     inkscape:pageopacity="0"
     inkscape:pageshadow="2"
     inkscape:window-width="1276"
     inkscape:window-height="761"
     id="namedview3095"
     showgrid="false"
     fit-margin-top="0"
     fit-margin-left="0"
     fit-margin-right="0"
     fit-margin-bottom="0"
     inkscape:zoom="1"
     inkscape:cx="139.8159"
     inkscape:cy="199.24097"
     inkscape:window-x="0"
     inkscape:window-y="18"
     inkscape:window-maximized="0"
     inkscape:current-layer="svg3093" />
  <g
     id="g3153"
     transform="matrix(0.3623038,0,0,0.3623038,316.37609,10.489127)">
    <path
       inkscape:connector-curvature="0"
       id="path3122"
       d="m -832.18459,489.57947 c 0.2465,-0.4125 67.59151,-117.075 149.65558,-259.25 82.06408,-142.174997 149.53748,-258.851017 149.94089,-259.280037 0.61553,-0.6546 297.67338,512.468057 299.62854,517.563117 0.62173,1.62021 -16.24908,1.71692 -299.50717,1.71692 -165.0913,0 -299.96433,-0.3375 -299.71784,-0.75 z m 143.66987,-26.71593 c 0,-0.39256 -12.86979,-21.34651 -44.43435,-72.34592 l -5.76329,-9.31185 -23.01472,39.81185 c -12.6581,21.89652 -23.23677,40.37435 -23.50817,41.06185 -0.39066,0.98962 9.63144,1.25 48.11354,1.25 26.73385,0 48.60699,-0.20967 48.60699,-0.46593 z m 44.84038,-46.68882 c 15.48779,-25.11011 28.15962,-45.92261 28.15962,-46.25 0,-0.32739 -25.9125,-0.59525 -57.58333,-0.59525 -32.23026,0 -57.43657,0.38295 -57.25,0.86978 1.32463,3.45642 57.41286,92.92718 57.89733,92.3566 0.33922,-0.39951 13.28859,-21.27102 28.77638,-46.38113 z m 86.15962,46.64782 c 0,-0.95551 -47.42718,-83.49307 -47.97623,-83.49307 -0.47217,0 -50.9461,80.96928 -51.8571,83.18813 -0.18334,0.44653 22.20416,0.81187 49.75,0.81187 27.54583,0 50.08333,-0.22812 50.08333,-0.50693 z m 151,0.036 c 0,-0.71723 -51.27246,-83.59582 -51.52898,-83.29325 -0.58403,0.68889 -47.47102,83.04142 -47.47102,83.37835 0,0.21221 22.275,0.38583 49.5,0.38583 27.225,0 49.5,-0.2119 49.5,-0.4709 z m 45.26159,-46.32347 28.7616,-46.70563 -57.67007,-0.25819 c -31.71854,-0.142 -57.8426,-0.0857 -58.05347,0.12521 -0.46218,0.46218 56.98607,93.63486 57.70035,93.58155 0.275,-0.0205 13.44271,-21.05485 29.26159,-46.74294 z m 82.57174,45.98553 c -2.01326,-4.88521 -46.35894,-80.04844 -46.88742,-79.47134 -19.86851,27.28883 -30.61932,49.21883 -49.79586,80.28018 l 48.50831,0 c 26.67957,0 48.35831,-0.36398 48.17497,-0.80884 z M -472.14428,353.89849 c 32.24626,-56.33704 58.62956,-102.68704 58.62956,-103 0,-0.31296 -53.1375,-0.56902 -118.08333,-0.56902 -65.42244,0 -117.93468,0.38321 -117.75,0.85928 1.21705,3.13738 117.25553,205.14072 117.8407,205.14072 0.40343,0 27.11681,-46.09394 59.36307,-102.43098 z m -146.37044,2.01084 c 0,-0.55767 -51.08263,-89.85144 -51.98694,-90.87454 -0.38633,-0.43707 -7.9207,11.71293 -16.74305,27 -8.82234,15.28707 -20.78877,36.00718 -26.59206,46.04468 l -10.55143,18.25 52.93674,0 c 29.11521,0 52.93674,-0.18906 52.93674,-0.42014 z m 278,-0.11652 c 0,-1.15692 -51.34338,-89.46334 -52.01604,-89.46334 -0.39409,0 -11.4399,18.7875 -24.54625,41.75 -13.10634,22.9625 -24.68596,43.2125 -25.73249,45 l -1.90277,3.25 52.09877,0 c 28.65433,0 52.09878,-0.2415 52.09878,-0.53666 z M -547.72535,223.07947 c -0.79236,-1.2375 -12.61285,-20.39018 -26.26777,-42.56152 -19.8541,-32.23686 -25.06905,-40.04881 -26.03487,-39 -0.86644,0.9409 -34.76959,59.38951 -48.17989,83.06152 38.57386,-0.21438 60.50025,0.75 101.92318,0.75 z m 130.39686,-1 c -1.08729,-1.7875 -11.95896,-20.575 -24.15926,-41.75 -12.2003,-21.175 -22.49481,-38.82491 -22.87668,-39.22202 -0.38188,-0.39711 -2.5244,2.30289 -4.76116,6 -19.2448,27.11004 -30.01124,48.68567 -48.27235,78.22202 34.01545,0 68.03089,0 102.04634,0 z m -56.6087,-91.25 -57.44724,-0.25819 c -31.59598,-0.142 -57.61874,-0.0867 -57.82835,0.12292 -0.20962,0.20961 12.57041,21.32959 28.40005,46.93328 15.82964,25.6037 29.00995,46.32787 29.28959,46.05372 23.02211,-37.66163 34.91376,-56.1674 57.58595,-92.85173 z m -4.57753,-14.04621 c 0,-0.40555 -52.49943,-91.940027 -53.44018,-93.174707 -0.0926,-0.12151 -7.76377,12.92849 -17.04707,29 -9.28331,16.0715 -21.49292,37.20843 -27.13248,46.97092 l -10.25375,17.749997 53.93674,0 c 29.66521,0 53.93674,-0.24579 53.93674,-0.54621 z"
       style="fill:#808285;fill-opacity:1"
       sodipodi:nodetypes="sssssssscsssssssssssscssssssssscsccscccscsssssssssscsssssscsssssccsssscccscscsccscsscss" />
    <path
       inkscape:connector-curvature="0"
       id="path3126"
       d="m -491.23427,624.96589 c -3.025,-0.7017 -7.20469,-2.01504 -9.28821,-2.91853 l -3.78821,-1.64272 2.10085,-4.11801 c 1.60738,-3.15072 2.4972,-3.95104 3.78821,-3.40717 9.17204,3.86393 12.04251,4.60891 16.04043,4.16301 4.83473,-0.53923 6.70846,-1.95413 7.64266,-5.77118 1.0576,-4.32127 -1.94964,-6.69884 -11.77235,-9.3074 -9.91004,-2.63175 -13.22373,-5.0601 -14.77715,-10.82906 -3.8884,-14.4404 11.1727,-24.59826 28.62227,-19.3041 7.58639,2.30169 7.8334,2.59315 5.80413,6.84856 -1.99399,4.18145 -1.92327,4.15876 -6.71839,2.15523 -5.06513,-2.11635 -11.93242,-1.95509 -13.99925,0.32874 -2.39055,2.64153 -2.0997,6.837 0.59501,8.58304 1.2375,0.80184 4.5,2.00363 7.25,2.67065 6.75498,1.63843 11.88203,4.31649 14.40547,7.52453 3.00465,3.81978 2.92369,12.84591 -0.15692,17.49516 -4.4015,6.64276 -15.53517,9.8984 -25.74855,7.52925 z m 280.87063,0.36172 c -4.77675,-0.81802 -13.87063,-4.4151 -13.87063,-5.48652 0,-0.57994 2.9284,-6.63342 3.55715,-7.35321 0.16654,-0.19065 3.22356,0.82185 6.79338,2.25 8.10347,4.33175 23.35292,1.24778 17.84911,-8.11457 -1.02452,-1.61214 -6.7296,-3.90547 -11.78344,-4.73673 -15.31804,-2.5195 -19.69116,-20.04602 -7.08404,-28.3913 3.51905,-2.32943 5.02501,-2.66076 12.09371,-2.66076 5.38833,0 9.62963,0.60026 12.75032,1.80452 l 4.6762,1.80452 -1.53129,3.69548 c -0.84221,2.03251 -1.68166,3.85564 -1.86544,4.05139 -0.18378,0.19575 -2.30463,-0.39662 -4.713,-1.31639 -13.59771,-5.50986 -22.90805,6.99655 -9.03204,10.95654 15.10853,4.10981 19.3041,7.68037 19.27293,16.40182 -0.0434,12.14752 -11.99621,19.68397 -27.11292,17.09521 z m -602.06693,-1.98218 c -4.314,-2.3384 -8.1068,-7.063 -9.6423,-12.01091 -4.7257,-15.22819 -0.4818,-30.81598 10.1855,-37.41106 3.9716,-2.45546 5.8542,-2.96148 10.9736,-2.94959 6.0581,0.0141 11.0671,1.71289 13.424,4.5528 0.8322,1.00268 0.4332,2.13957 -1.6436,4.68428 -2.7258,3.33975 -2.7616,3.35037 -5.8721,1.74191 -10.069,-5.20691 -16.2288,1.55083 -16.2288,17.80424 0,8.12798 2.2691,14.14808 6.0743,16.11584 3.9011,2.01732 5.7345,1.83258 10.8537,-1.09361 l 4.4281,-2.5311 2.286,2.79314 c 3.0685,3.74928 2.9452,4.38764 -1.4045,7.26958 -5.2166,3.45638 -17.9305,4.01763 -23.4339,1.03448 z m 47.6963,0.32746 c -9.942,-5.24127 -14.6822,-17.30748 -12.3902,-31.53924 1.5806,-9.81492 5.1526,-15.33385 12.2942,-18.99534 5.5746,-2.85809 17.689,-2.30738 22.3483,1.01594 9.7984,6.98879 13.4818,21.39497 9.2675,36.24562 -1.2983,4.57463 -6.9806,11.21365 -11.3879,13.30504 -4.5038,2.13719 -16.052,2.11882 -20.1319,-0.032 z m 15.1942,-7.8367 c 3.8153,-2.67235 5.6055,-9.40331 5.112,-19.22016 -0.6822,-13.56854 -4.5645,-18.62808 -12.757,-16.62517 -5.1845,1.26751 -7.2203,5.53942 -7.6998,16.15722 -0.6364,14.09524 2.9098,21.12639 10.6781,21.1717 1.3901,0.008 3.4901,-0.65951 4.6667,-1.48359 z m 36.8058,8.29051 c -5.2954,-3.03691 -5.4411,-4.12459 -5.7534,-42.9551 l -0.2466,-30.66293 5.4167,-1.08705 c 2.9792,-0.59789 5.6792,-0.82522 6,-0.50519 0.3208,0.32003 0.7011,14.83252 0.8451,32.24998 0.144,17.41746 0.4901,32.68061 0.7691,33.91811 0.3081,1.36665 1.2537,2.25 2.4087,2.25 1.9897,0 3.8211,4.96015 2.5755,6.9756 -0.8533,1.3807 -9.5184,1.24842 -12.0151,-0.18342 z m 32.7037,-0.92037 c -8.3991,-4.15749 -12.2037,-12.20642 -12.2037,-25.81822 -0.21849,-12.80934 7.0949,-24.80188 18.9811,-25.8586 8.5793,-0.62058 12.6015,0.43316 17.0729,4.47271 4.6258,4.17917 6.946,10.69743 6.946,19.5138 l 0,5.8185 -15.6278,0 -15.6278,0 0.6783,4.25 c 0.902,5.65126 2.9777,8.60152 7.3314,10.42063 4.3622,1.82264 10.4978,1.12013 14.7613,-1.69013 3.8156,-2.5151 3.7282,-2.53103 5.8529,1.06589 1.5168,2.56767 1.59,3.29973 0.4656,4.65848 -4.4846,5.41981 -20.4999,7.19134 -28.6302,3.16694 z m 18.9423,-33.37181 c -1.0758,-9.11666 -8.2887,-13.322 -14.487,-8.44638 -2.6354,2.07299 -5.2797,9.13304 -4.1222,11.0059 0.3712,0.60059 4.3609,0.89669 9.7947,0.72693 l 9.1685,-0.28645 z m 59.854,34.37927 c -7.32005,-2.91032 -12.14252,-11.2187 -12.78857,-22.03274 -1.08099,-18.09457 6.42426,-29.68622 19.84971,-30.65733 5.73179,-0.47332 8.44207,1.09017 12.93886,3.74335 l 0,-13.52755 0,-13.52755 4.75,0.67813 c 2.6125,0.37297 5.06252,0.96304 5.44448,1.31127 0.38197,0.34823 0.83197,17.17093 1,37.38378 l 0.30552,36.75063 -4.78138,-6.3e-4 c -3.26003,-4.3e-4 -4.95893,-0.46328 -5.33936,-1.45468 -0.47021,-1.22534 -1.13145,-1.14669 -4.20381,0.5 -3.98606,2.1364 -12.81991,2.56501 -17.17545,0.83332 z m 17,-10.74682 c 2.42712,-1.79068 2.50811,-2.24212 2.7782,-15.486 l 0.27821,-13.64154 -3.27821,-1.99872 c -5.95058,-3.62806 -12.19022,-2.06053 -15.14404,3.80451 -3.21236,6.37841 -2.55464,22.39607 1.0859,26.44551 3.70785,4.12429 9.40376,4.4738 14.27994,0.87624 z m 41.01986,9.61755 c -5.85323,-2.99046 -9.59946,-7.95512 -11.47723,-15.2101 -3.71767,-14.36357 0.14254,-27.64682 9.8667,-33.95209 3.34325,-2.16779 5.13523,-2.58514 11.04084,-2.57136 14.24619,0.0332 21.54983,8.68678 21.54983,25.53277 l 0,4.45078 -15.5,0 -15.5,0 0.004,3.25 c 0.008,6.6081 6.41187,12.75 13.29466,12.75 1.29946,0 4.57641,-1.13032 7.28212,-2.51181 l 4.91948,-2.51182 2.2447,2.76182 c 1.23459,1.51899 2.11467,3.21181 1.95574,3.76181 -0.15893,0.55 -2.71224,2.2375 -5.67402,3.75 -7.18206,3.66768 -17.39031,3.8803 -24.00656,0.5 z m 18.67355,-34 c -0.66162,-4.93382 -5.20286,-9.75 -9.19341,-9.75 -3.99055,0 -8.53179,4.81618 -9.19341,9.75 l -0.56993,4.25 9.76334,0 9.76334,0 z m 164.44838,34.14354 c -8.70518,-4.41355 -12.74736,-13.87172 -11.9339,-27.92375 0.59714,-10.31525 3.53283,-16.22747 10.33401,-20.81179 11.35993,-6.77115 26.84058,-1.86769 32.1096,8.54101 2.52435,5.14086 2.8485,6.88206 2.8485,15.30099 0.11566,15.74521 -7.55096,26.10054 -21.42688,26.80158 -6.22609,0.24794 -8.34831,-0.0914 -11.93133,-1.90804 z m 15.74134,-7.52423 c 3.70174,-2.5928 5.11687,-7.3965 5.11687,-17.36931 0,-9.97281 -1.41513,-14.77651 -5.11687,-17.36931 -4.67961,-3.27772 -10.81616,-1.34852 -13.54379,4.25787 -2.41101,4.95561 -2.42347,21.2076 -0.0198,25.80074 3.15966,6.0377 8.83127,7.99464 13.56359,4.68001 z m 94.42824,7.73479 c -4.4878,-2.81496 -5.29929,-6.83552 -5.30579,-26.28768 l -0.006,-16.68358 -2.75,-0.31642 c -2.3875,-0.27471 -2.79091,-0.81074 -3.06037,-4.06642 -0.29663,-3.58405 -0.17493,-3.75 2.75,-3.75 2.95378,0 3.06037,-0.15446 3.06037,-4.4349 0.0107,-10.74483 2.91995,-8.67429 10.57101,-11.23072 1.16623,-0.44753 1.42899,0.94232 1.42899,7.55863 l 0,8.10699 6,0 c 3.3,0 6,0.17004 6,0.37788 0,0.20783 -0.68104,2.00783 -1.51342,4 -1.45816,3.48985 -0.1082,3.62212 -6.60083,3.62212 l -5.08741,0 0.35083,16.84728 c 0.40721,19.55468 0.76836,20.51973 7.47931,19.98599 4.11122,-0.32698 4.26136,-0.23399 4.87123,3.01686 0.34609,1.84483 0.34495,3.63854 -0.003,3.98602 -0.34748,0.34748 -3.86399,0.77493 -7.81448,0.94989 -5.82426,0.25795 -7.78575,-0.0601 -10.37133,-1.68194 z m -623.31137,-35.1041 0,-36 19.5,0 19.5,0 0,3.41821 c 0,6.62938 0.102,6.58179 -14.107,6.58179 l -12.893,0 0,10 0,10 11,0 11,0 0,5 0,5 -11,0 -11,0 0,11 0,11 14.5,0 14.5,0 0,5 0,5 -20.5,0 -20.5,0 z m 447,-0.15656 0,-36.15656 15.74949,0.64987 c 18.32443,0.75612 22.59058,2.22537 27.74136,9.55403 4.58025,7.90106 4.15733,17.84438 2.3e-4,24.63288 -4.41145,7.13535 -10.08979,9.77888 -22.13697,10.30578 l -9.35411,0.40912 0,13.38072 0,13.38072 -6,0 -6,0 z m 30.08254,-3.62588 c 3.88669,-3.47276 4.93613,-9.84378 2.55872,-15.53371 -1.96327,-4.69878 -6.30211,-6.68385 -14.60914,-6.68385 l -6.03212,0 0,12.5 0,12.5 7.48422,0 c 6.77297,0 7.78017,-0.26443 10.59832,-2.78244 z m 83.70185,16.03244 c -0.20584,-13.0625 -0.72591,-24.50163 -1.15572,-25.4203 -0.63648,-1.36038 0.11404,-1.93513 4.04493,-3.09767 4.27368,-1.26391 4.96955,-1.25114 6.0764,0.11143 0.6875,0.84634 1.25,2.35664 1.25,3.35622 0,1.6076 0.61545,1.47008 5.33086,-1.19113 6.0629,-3.42169 13.73522,-4.05998 18.59485,-1.54697 5.20174,2.68993 6.07429,7.07958 6.07429,30.55866 l 0,20.97976 -5.40957,0 -5.40957,0 -0.34043,-19.97359 c -0.3241,-19.0153 -0.44602,-20.07912 -2.54123,-22.17303 -4.04808,-3.1193 -8.60781,-0.88567 -12.6638,2.21878 l -2.6354,2.073 0,18.92742 0,18.92742 -5.42068,0 -5.42068,0 z m -552.46879,-53.71446 c -0.9207,-1.93073 -1.4809,-3.68456 -1.2448,-3.8974 0.2361,-0.21284 4.8755,-3.22515 10.3099,-6.69404 10.9324,-6.97833 10.3754,-6.99172 14.2401,0.34247 l 1.4684,2.78657 -7.4542,3.39698 c -4.0998,1.86833 -9.2972,4.33722 -11.5498,5.48641 l -4.0956,2.08944 z"
       style="fill:#61c8cd;fill-opacity:1"
       sodipodi:nodetypes="sscssssssssssssssssssccsssscssccsssssscccssscssscssscscccsssccsscssscsssscccsccccscccssscscsssccccssscsssssscsssscssssccccsscsssccssscccsssccccssssssscccsssccscsssscssscsccccccssccccccccccccccccccccsccsccccccssscccsssssssssscccscccccccssssscsscs" />
    <path
       sodipodi:nodetypes="ccccccccccccccccccsssccccscssscccsccccccsscsssssssssssccsscccssscccssscssssscsssscssss"
       style="fill:#000000"
       d="m -501.14214,723.47294 0,-31.1007 -12.5,0.72098 -12.5,0.72097 0,-3.12028 0,-3.12028 30,0 30,0 0,3.12849 0,3.12849 -12,-0.71622 -12,-0.71622 0,31.08773 0,31.08773 -5.5,0 -5.5,0 z m 41.7591,29.67776 c -10.8812,-3.88354 -16.5544,-12.86988 -15.4957,-24.54526 1.6374,-18.05762 19.4865,-28.14785 33.9642,-19.20018 4.0304,2.49095 7.7724,8.77596 7.7724,13.05452 l 0,3.11385 -15.5,0 -15.5,0 0.01,5.75 c 0.012,12.48044 4.2542,19.21652 12.5538,19.93414 3.757,0.32485 5.7095,-0.0559 8.1503,-1.58924 3.374,-2.12001 7.2899,-8.59519 7.2899,-12.0551 0,-1.14652 0.6569,-2.03984 1.5,-2.03984 2.2598,0 1.8565,4.89985 -0.7551,9.17409 -5.1812,8.47989 -14.5622,11.76632 -23.9858,8.40298 z m 15.0118,-34.6097 c -1.3891,-14.45665 -16.2802,-13.06706 -19.1031,1.78263 l -0.6178,3.24996 10.1022,0 10.1023,0 -0.4836,-5.03263 z m 34.2226,35.15654 c -11.3608,-3.71988 -17.9208,-13.85035 -16.6901,-25.7745 1.5975,-15.47863 15.3755,-24.56598 32.1966,-21.23544 l 7,1.38599 0.2903,8.84678 c 0.3427,10.44114 -0.7517,10.98118 -4.3232,2.1334 -3.0289,-7.50363 -6.2798,-10.48018 -11.4461,-10.48018 -4.8268,0 -9.3634,3.56269 -11.1838,8.78273 -1.8521,5.3109 -1.6017,21.77646 0.4013,26.38949 2.1588,4.97208 6.0308,7.32778 12.0444,7.32778 4.3394,0 5.2408,-0.40377 8.2626,-3.70115 1.8655,-2.03563 3.6685,-4.96063 4.0067,-6.5 1.006,-4.57926 1.3341,-5.29885 2.4164,-5.29885 1.7119,0 1.1625,5.09767 -1.0396,9.64657 -1.159,2.39418 -3.5729,5.20631 -5.4819,6.38611 -3.7266,2.3032 -12.4284,3.40918 -16.4536,2.09123 z m 30.0065,-0.12395 c 0,-0.55 1.125,-1 2.5,-1 l 2.5,0 0,-29 0,-29 -3,0 c -1.65,0 -3,-0.45 -3,-1 0,-0.58333 3.3333,-1 8,-1 l 8,0 0,11.18709 0,11.18709 2.8438,-2.72458 c 4.8933,-4.68806 11.4872,-5.51723 19.4534,-2.44622 5.0289,1.93869 5.7028,4.86309 5.7028,24.74696 l 0,18.04966 3,0 c 1.65,0 3,0.45 3,1 0,0.60606 -4.3333,1 -11,1 -6.6667,0 -11,-0.39394 -11,-1 0,-0.55 1.35,-1 3,-1 l 3,0 0,-18.56574 c 0,-10.88549 -0.4282,-19.3659 -1.0352,-20.5 -1.4351,-2.68161 -7.8318,-2.61334 -11.3075,0.12068 -4.0983,3.22371 -5.6573,10.28574 -5.6573,25.62656 l 0,13.3185 3.5,0 c 1.925,0 3.5,0.45 3.5,1 0,0.60606 -4.3333,1 -11,1 -6.6667,0 -11,-0.39394 -11,-1 z"
       id="path3128"
       inkscape:connector-curvature="0" />
    <path
       inkscape:connector-curvature="0"
       id="path3130"
       d="m -731.14214,720.92863 0,-33.64495 17.25,0.56905 c 19.6762,0.64908 26.2063,2.09761 30.0503,6.66584 5.0905,6.04981 4.2063,15.95489 -1.9421,21.75353 -4.5319,4.2741 -14.3395,7.28661 -26.1082,8.01939 l -9.25,0.57595 0,14.85307 0,14.85308 -5,0 -5,0 z m 31.3681,-3.80039 c 7.8305,-3.83539 10.3524,-14.47829 4.8817,-20.60114 -2.381,-2.66477 -3.7572,-3.20931 -10.25,-4.05567 -4.1249,-0.5377 -9.4123,-0.7071 -11.7498,-0.37646 l -4.25,0.60117 0,13.53822 0,13.53823 8.75,-0.37488 c 5.9259,-0.25389 9.9984,-0.98637 12.6181,-2.26947 z m 27.3724,36.01604 c -7.4944,-2.67431 -10.5966,-7.85778 -8.4819,-14.17255 1.8163,-5.4239 5.2961,-7.41017 18.9742,-10.83057 l 12.2672,-3.06757 0.2949,-5.58371 c 0.4009,-7.58881 -1.5486,-9.99404 -8.6539,-10.67677 -4.5174,-0.43406 -5.5856,-0.17745 -7.8215,1.87888 -1.4243,1.30988 -3.6482,4.7441 -4.9419,7.6316 -3.5372,7.8943 -5.5426,7.14283 -5.1714,-1.93785 l 0.2938,-7.18785 5,-1.29286 c 7.64,-1.9755 19.1731,-1.66281 24.2876,0.65848 6.4433,2.92435 7.2124,5.64125 7.2124,25.47796 l 0,16.53212 2.5,0 c 1.375,0 2.5,0.45 2.5,1 0,0.58333 -3.3333,1 -8,1 -7.9399,0 -8,-0.0194 -8,-2.58889 l 0,-2.5889 -3.0311,2.55047 c -5.2611,4.42694 -12.4389,5.62074 -19.2284,3.19801 z m 14.2673,-3.1905 c 5.8359,-2.33505 8.9922,-8.06523 8.9922,-16.32504 0,-5.41882 -0.2241,-6.18312 -1.6525,-5.63501 -0.9089,0.34876 -4.6214,1.37811 -8.25,2.28744 -8.5513,2.14295 -12.0975,5.44985 -12.0975,11.28124 0,4.96806 1.3646,7.8153 4.3154,9.0042 3.1464,1.26771 4.1735,1.1953 8.6924,-0.61283 z m 29.9922,3.61981 c 0,-0.55 1.125,-1 2.5,-1 l 2.5,0 0,-21 0,-21 -3.059,0 c -1.7847,0 -2.8016,-0.41658 -2.441,-1 0.3399,-0.55 3.7415,-1 7.559,-1 l 6.941,0 0,4.13486 0,4.13486 2.1679,-2.75604 c 2.5978,-3.30252 7.4977,-5.51368 12.2182,-5.51368 6.367,0 6.6139,0.35869 6.6139,9.60699 0,10.64345 -1.6262,11.08915 -5.3966,1.47904 -2.9667,-7.56147 -4.6695,-8.92797 -8.2235,-6.5993 -4.9585,3.24893 -5.8311,6.75253 -5.8565,23.51327 l -0.023,15.5 3.771,0.31161 c 2.074,0.17139 3.5099,0.73389 3.191,1.25 -0.7941,1.28472 -22.462,1.22528 -22.462,-0.0616 z m 41,0 c 0,-0.55 1.35,-1 3,-1 l 3,0 0,-21 0,-21 -3.059,0 c -1.7847,0 -2.8016,-0.41658 -2.441,-1 0.3399,-0.55 3.9665,-1 8.059,-1 l 7.441,0 0,22 0,22 2.5,0 c 1.375,0 2.5,0.45 2.5,1 0,0.60317 -4.1667,1 -10.5,1 -6.3333,0 -10.5,-0.39683 -10.5,-1 z m 38,-0.0392 c -2.475,-0.51373 -5.7375,-1.44466 -7.25,-2.06873 -2.6525,-1.09443 -2.75,-1.39895 -2.75,-8.58667 0,-6.41375 0.2319,-7.40696 1.6643,-7.12868 0.9619,0.18688 2.3334,2.30285 3.25,5.01432 2.3039,6.81572 4.9463,9.79839 9.2803,10.47549 9.051,1.41405 17.8054,-2.55853 17.8054,-8.07979 0,-3.69348 -3.5375,-6.37063 -11.4603,-8.67311 -11.6283,-3.37932 -15.2215,-4.97204 -18.1772,-8.0571 -5.6652,-5.91322 -2.9862,-13.75559 6.1375,-17.96645 4.6598,-2.15065 15.6566,-2.52261 21.634,-0.73175 l 3.866,1.15829 0,7.42504 c 0,8.7613 -1.5004,9.34847 -4.2807,1.67519 -0.9798,-2.70425 -2.9744,-5.97824 -4.4325,-7.27553 -5.2073,-4.63305 -18.3429,-1.12994 -19.092,5.0916 -0.4469,3.71126 3.2842,6.13929 15.0522,9.79532 12.2402,3.80273 16.753,7.44029 16.753,13.50377 0,10.63079 -13.2939,17.48133 -28,14.42879 z m -32.4254,-51.87833 c -4.0211,-4.44336 0.9805,-9.67509 7.1754,-7.50539 5.3618,1.87793 3.1599,9.42292 -2.75,9.42292 -1.4795,0 -3.4709,-0.86289 -4.4254,-1.91753 z"
       style="fill:#6d6e71;fill-opacity:1"
       sodipodi:nodetypes="ccssssccccccsssscccssssscssssscssscsssscssssssssssscccssscccsssssscssssscccssscccssssssssssssssscsssssssssss" />
  </g>
</svg>
